<svg version="1.1" preserveAspectRatio="none" xmlns="http://www.w3.org/2000/svg" width="500" height="500" viewBox="0 0 500 500"><rect width="100%" height="100%" fill="#FFFFFF" fill-opacity="1"/><svg viewBox="83.3512 168.8169 519.5652 160" width="333" height="102.54728376727309" x="83.5px" y="198.7264px" xmlns="http://www.w3.org/2000/svg" xmlns:xlink="http://www.w3.org/1999/xlink" preserveAspectRatio="none"><defs></defs><style>.companyName {fill:#182145;fill-opacity:1;}.icon1 {fill:#182145;fill-opacity:1;}.icon2 {fill:#E35B34;fill-opacity:1;}.icon3 {fill:#E3D454;fill-opacity:1;}.icon3-str {stroke:#E3D454;stroke-opacity:1;}.text {fill:#182145;fill-opacity:1;}</style><g opacity="1" transform="rotate(0 83.3512 168.8169)">
<svg width="103.9136" height="160" x="83.3512" y="168.8169" version="1.1" preserveAspectRatio="none" viewBox="100.13497161865234 16 311.7408142089844 480">
  <g transform="matrix(1 0 0 1 0 0)" class="icon1"><title>Global aviation</title><path d="M364.524,228.281l-2.935,3.195a164.726,164.726,0,0,0-20.845,28.22l-4.779,8.169a6.937,6.937,0,0,0,.837,7.973,11.817,11.817,0,0,0,7.461,3.953l2.306.284a22.341,22.341,0,0,1,18.637,15.683,21.915,21.915,0,0,1-6.447,22.719l-22.815,20.152a11.049,11.049,0,0,0-3.733,8.278v5.348a8.2,8.2,0,0,0,3.768,6.915,21.091,21.091,0,0,1,9.6,15.707l.534,5.34a6.756,6.756,0,0,0,6.744,6.1h13.356a17.75,17.75,0,0,0,16.249-10.613l.8-1.827a21.186,21.186,0,0,1,18.551-12.726l3.137-.142c.31-.014.625-.036.939-.069l4.64-.466a155.583,155.583,0,0,0-46.01-132.2Z"></path><path d="M150.309,186.777a.428.428,0,0,0,.427.428h67.128V173.924a6,6,0,0,1,12,0v67.765a6.011,6.011,0,0,1-.8,3L199.1,296.726a6.011,6.011,0,0,1-.954,1.245,1.28,1.28,0,0,0-.3,1.5,1.312,1.312,0,0,0,.614.7l55.5-20.067a6,6,0,0,1,4.075,0l55.672,20.07a1.314,1.314,0,0,0,.616-.706,1.281,1.281,0,0,0-.3-1.5,6,6,0,0,1-.947-1.233L282.943,244.7a6,6,0,0,1-.807-3.007V173.924a6,6,0,0,1,12,0v13.281h67.128a.428.428,0,0,0,.427-.428V171.609a6.877,6.877,0,0,0-5.515-6.726l-69.217-13.844a6,6,0,0,1-4.823-5.884V65.422a26.136,26.136,0,0,0-52.272,0v79.733a6,6,0,0,1-4.823,5.884l-69.22,13.845a6.873,6.873,0,0,0-5.512,6.722ZM247.1,86.718a7.928,7.928,0,1,1-7.929,7.928A7.937,7.937,0,0,1,247.1,86.718Zm0,19.282a7.928,7.928,0,1,1-7.929,7.928A7.938,7.938,0,0,1,247.1,106Zm0,19.281a7.929,7.929,0,1,1-7.929,7.928A7.938,7.938,0,0,1,247.1,125.281Zm0,19.281a7.929,7.929,0,1,1-7.929,7.928A7.938,7.938,0,0,1,247.1,144.562Zm0,19.282a7.928,7.928,0,1,1-7.929,7.928A7.937,7.937,0,0,1,247.1,163.844Zm0,19.281a7.928,7.928,0,1,1-7.929,7.929A7.938,7.938,0,0,1,247.1,183.125Zm0,19.281a7.929,7.929,0,1,1-7.929,7.929A7.938,7.938,0,0,1,247.1,202.406Zm0,19.282a7.928,7.928,0,1,1-7.929,7.928A7.938,7.938,0,0,1,247.1,221.688Z"></path><path d="M102.285,314.6l1.767-.349a29.493,29.493,0,0,1,31.211,14.124,27.379,27.379,0,0,0,4.914,6.19L152.851,346.5a17.725,17.725,0,0,0,7.455,4.177l1.475.4a27.149,27.149,0,0,1,18.936,18.856l6.795,24.515a22.525,22.525,0,0,0,3.814,7.679l20.589,27a27.459,27.459,0,0,1,5.233,12.094l5.619,33.717a3.42,3.42,0,0,0,4.695,2.591,8.128,8.128,0,0,0,4.943-6.662A36.161,36.161,0,0,1,240.6,451.4l5.965-7.175a11.1,11.1,0,0,0,2.083-3.847l6.129-19.885a30.832,30.832,0,0,1,10.743-15.453l18.4-14.128a4.887,4.887,0,0,0,.748-7.04l-12.141-14.283c-.747-.879-1.467-1.8-2.139-2.737l-9.546-13.305a25.8,25.8,0,0,0-20.913-10.736,6,6,0,0,1-3.087-.855l-18.968-11.38a17.106,17.106,0,0,0-16.8-.409l-9.994,5.355a21.063,21.063,0,0,1-27.637-7.271l-9.707-15.327a22.451,22.451,0,0,1,.379-24.608,25.109,25.109,0,0,1,24.069-10.878l14.694,1.865a11.607,11.607,0,0,0,2.377.058l22.611-39.271V199.205H189.4A156.467,156.467,0,0,0,102.285,314.6Z"></path><path d="M405.505,373l-3.142.144a9.259,9.259,0,0,0-8.108,5.561l-.8,1.827a29.75,29.75,0,0,1-27.236,17.789H352.86a18.718,18.718,0,0,1-18.684-16.91l-.534-5.34a9.157,9.157,0,0,0-4.168-6.816,20.151,20.151,0,0,1-9.263-17v-5.348A23.054,23.054,0,0,1,328,329.635l22.814-20.153a9.878,9.878,0,0,0,2.907-10.244,10.331,10.331,0,0,0-8.62-7.253L342.8,291.7a23.8,23.8,0,0,1-15.025-7.961,18.963,18.963,0,0,1-2.195-21.88l4.81-8.222a176.824,176.824,0,0,1,22.366-30.282l2.846-3.1a155.91,155.91,0,0,0-32.992-21.054h-28.47v40.873l28.992,50.068a13.377,13.377,0,0,1-10.076,22.176,6,6,0,0,1-2.035-.355L256,292.135l-54.843,19.83a6.013,6.013,0,0,1-2.04.357,13.376,13.376,0,0,1-10.639-21.485l-11.811-1.5a13.163,13.163,0,0,0-12.622,5.7,10.453,10.453,0,0,0-.176,11.457l9.707,15.326a9.017,9.017,0,0,0,11.832,3.113l10-5.354a29.158,29.158,0,0,1,28.638.7l17.609,10.565a37.827,37.827,0,0,1,28.936,15.7l9.546,13.306c.482.671,1,1.331,1.531,1.959L293.807,376.1a16.887,16.887,0,0,1-2.582,24.329l-18.4,14.128a18.9,18.9,0,0,0-6.583,9.47l-6.129,19.885a23.064,23.064,0,0,1-4.323,7.984l-5.966,7.174a24.2,24.2,0,0,0-5.482,13.027A20.122,20.122,0,0,1,232.1,488.587,15.419,15.419,0,0,1,210.93,476.9l-5.619-33.716a15.424,15.424,0,0,0-2.938-6.79l-20.589-27a34.476,34.476,0,0,1-5.836-11.751l-6.8-24.515a15.094,15.094,0,0,0-10.528-10.483l-1.475-.4a29.762,29.762,0,0,1-12.524-7.016l-12.674-11.928a39.4,39.4,0,0,1-7.066-8.9,17.493,17.493,0,0,0-18.511-8.376l-5.668,1.119c-.362,4.3-.567,8.632-.567,13C100.14,426.081,170.058,496,256,496c74.759,0,137.384-52.911,152.418-123.25l-1.327.134Q406.3,372.964,405.505,373Z"></path><path d="M326.211,110.024a6,6,0,0,0,6-6v-33.2a6,6,0,0,0-12,0v33.2A6,6,0,0,0,326.211,110.024Z"></path><path d="M320.211,125.621a6,6,0,1,0,12,0v-.113a6,6,0,1,0-12,0Z"></path><path d="M355.506,28.977a6,6,0,0,0,6-6V22a6,6,0,0,0-12,0v.977A6,6,0,0,0,355.506,28.977Z"></path><path d="M349.506,96.213a6,6,0,0,0,12,0V44.572a6,6,0,0,0-12,0Z"></path><path d="M157.194,110.024a6,6,0,0,0,6-6v-33.2a6,6,0,1,0-12,0v33.2A6,6,0,0,0,157.194,110.024Z"></path><path d="M151.194,125.621a6,6,0,0,0,12,0v-.113a6,6,0,0,0-12,0Z"></path><path d="M186.489,28.977a6,6,0,0,0,6-6V22a6,6,0,0,0-12,0v.977A6,6,0,0,0,186.489,28.977Z"></path><path d="M180.489,96.213a6,6,0,0,0,12,0V44.572a6,6,0,0,0-12,0Z"></path></g>
</svg>
</g><g opacity="1" transform="rotate(0 217.2648 168.8169)">
<svg width="385.6516" height="120" x="217.2648" y="168.8169" version="1.1" preserveAspectRatio="none" viewBox="3.32 -28.48 221.60000000000002 68.96000000000001">
  <g transform="matrix(1 0 0 1 0 0)" class="companyName"><path id="id-D6z1nYkh15" d="M18.48 0.48Q14.20 0.48 10.74-1.38Q7.28-3.24 5.30-6.54Q3.32-9.84 3.32-14L3.32-14Q3.32-18.16 5.30-21.46Q7.28-24.76 10.74-26.62Q14.20-28.48 18.52-28.48L18.52-28.48Q22.16-28.48 25.10-27.20Q28.04-25.92 30.04-23.52L30.04-23.52L25.88-19.68Q23.04-22.96 18.84-22.96L18.84-22.96Q16.24-22.96 14.20-21.82Q12.16-20.68 11.02-18.64Q9.88-16.60 9.88-14L9.88-14Q9.88-11.40 11.02-9.36Q12.16-7.32 14.20-6.18Q16.24-5.04 18.84-5.04L18.84-5.04Q23.04-5.04 25.88-8.36L25.88-8.36L30.04-4.52Q28.04-2.08 25.08-0.80Q22.12 0.48 18.48 0.48L18.48 0.48Z M47.36 0.48Q43 0.48 39.50-1.40Q36-3.28 34.02-6.58Q32.04-9.88 32.04-14L32.04-14Q32.04-18.12 34.02-21.42Q36-24.72 39.50-26.60Q43-28.48 47.36-28.48L47.36-28.48Q51.72-28.48 55.20-26.60Q58.68-24.72 60.68-21.42Q62.68-18.12 62.68-14L62.68-14Q62.68-9.88 60.68-6.58Q58.68-3.28 55.20-1.40Q51.72 0.48 47.36 0.48L47.36 0.48ZM47.36-5.04Q49.84-5.04 51.84-6.18Q53.84-7.32 54.98-9.36Q56.12-11.40 56.12-14L56.12-14Q56.12-16.60 54.98-18.64Q53.84-20.68 51.84-21.82Q49.84-22.96 47.36-22.96L47.36-22.96Q44.88-22.96 42.88-21.82Q40.88-20.68 39.74-18.64Q38.60-16.60 38.60-14L38.60-14Q38.60-11.40 39.74-9.36Q40.88-7.32 42.88-6.18Q44.88-5.04 47.36-5.04L47.36-5.04Z M80.00 0.48Q74.00 0.48 70.66-2.84Q67.32-6.16 67.32-12.32L67.32-12.32L67.32-28L73.80-28L73.80-12.56Q73.80-5.04 80.04-5.04L80.04-5.04Q83.08-5.04 84.68-6.86Q86.28-8.68 86.28-12.56L86.28-12.56L86.28-28L92.68-28L92.68-12.32Q92.68-6.16 89.34-2.84Q86.00 0.48 80.00 0.48L80.00 0.48Z M118.36-28L124.76-28L124.76 0L119.44 0L105.48-17L105.48 0L99.08 0L99.08-28L104.44-28L118.36-11L118.36-28Z M137.20 0L137.20-22.72L128.24-22.72L128.24-28L152.64-28L152.64-22.72L143.68-22.72L143.68 0L137.20 0Z M180.92 0L173.96 0L168.56-7.80L168.24-7.80L162.60-7.80L162.60 0L156.12 0L156.12-28L168.24-28Q171.96-28 174.70-26.76Q177.44-25.52 178.92-23.24Q180.40-20.96 180.40-17.84L180.40-17.84Q180.40-14.72 178.90-12.46Q177.40-10.20 174.64-9L174.64-9L180.92 0ZM173.84-17.84Q173.84-20.20 172.32-21.46Q170.80-22.72 167.88-22.72L167.88-22.72L162.60-22.72L162.60-12.96L167.88-12.96Q170.80-12.96 172.32-14.24Q173.84-15.52 173.84-17.84L173.84-17.84Z M209.44-28L198.56-9.92L198.56 0L192.08 0L192.08-10L181.24-28L188.12-28L195.60-15.56L203.08-28L209.44-28Z M9.76 34.80L25 34.80L25 40L3.32 40L3.32 12L24.48 12L24.48 17.20L9.76 17.20L9.76 23.28L22.76 23.28L22.76 28.32L9.76 28.32L9.76 34.80Z M55 40L47.52 40L40.76 30.28L34.12 40L26.68 40L37.04 25.76L27.20 12L34.56 12L41 21.08L47.32 12L54.32 12L44.56 25.52L55 40Z M69.68 12Q73.40 12 76.14 13.24Q78.88 14.48 80.36 16.76Q81.84 19.04 81.84 22.16L81.84 22.16Q81.84 25.24 80.36 27.54Q78.88 29.84 76.14 31.06Q73.40 32.28 69.68 32.28L69.68 32.28L64.04 32.28L64.04 40L57.56 40L57.56 12L69.68 12ZM69.32 27Q72.24 27 73.76 25.74Q75.28 24.48 75.28 22.16L75.28 22.16Q75.28 19.80 73.76 18.54Q72.24 17.28 69.32 17.28L69.32 17.28L64.04 17.28L64.04 27L69.32 27Z M86.44 40L86.44 12L92.92 12L92.92 34.72L106.96 34.72L106.96 40L86.44 40Z M123.68 40.48Q119.32 40.48 115.82 38.60Q112.32 36.72 110.34 33.42Q108.36 30.12 108.36 26L108.36 26Q108.36 21.88 110.34 18.58Q112.32 15.28 115.82 13.40Q119.32 11.52 123.68 11.52L123.68 11.52Q128.04 11.52 131.52 13.40Q135 15.28 137 18.58Q139 21.88 139 26L139 26Q139 30.12 137 33.42Q135 36.72 131.52 38.60Q128.04 40.48 123.68 40.48L123.68 40.48ZM123.68 34.96Q126.16 34.96 128.16 33.82Q130.16 32.68 131.30 30.64Q132.44 28.60 132.44 26L132.44 26Q132.44 23.40 131.30 21.36Q130.16 19.32 128.16 18.18Q126.16 17.04 123.68 17.04L123.68 17.04Q121.20 17.04 119.20 18.18Q117.20 19.32 116.06 21.36Q114.92 23.40 114.92 26L114.92 26Q114.92 28.60 116.06 30.64Q117.20 32.68 119.20 33.82Q121.20 34.96 123.68 34.96L123.68 34.96Z M168.68 40L161.72 40L156.32 32.20L156 32.20L150.36 32.20L150.36 40L143.88 40L143.88 12L156 12Q159.72 12 162.46 13.24Q165.20 14.48 166.68 16.76Q168.16 19.04 168.16 22.16L168.16 22.16Q168.16 25.28 166.66 27.54Q165.16 29.80 162.40 31L162.40 31L168.68 40ZM161.60 22.16Q161.60 19.80 160.08 18.54Q158.56 17.28 155.64 17.28L155.64 17.28L150.36 17.28L150.36 27.04L155.64 27.04Q158.56 27.04 160.08 25.76Q161.60 24.48 161.60 22.16L161.60 22.16Z M179.72 34.80L194.96 34.80L194.96 40L173.28 40L173.28 12L194.44 12L194.44 17.20L179.72 17.20L179.72 23.28L192.72 23.28L192.72 28.32L179.72 28.32L179.72 34.80Z M224.92 40L217.96 40L212.56 32.20L212.24 32.20L206.60 32.20L206.60 40L200.12 40L200.12 12L212.24 12Q215.96 12 218.70 13.24Q221.44 14.48 222.92 16.76Q224.40 19.04 224.40 22.16L224.40 22.16Q224.40 25.28 222.90 27.54Q221.40 29.80 218.64 31L218.64 31L224.92 40ZM217.84 22.16Q217.84 19.80 216.32 18.54Q214.80 17.28 211.88 17.28L211.88 17.28L206.60 17.28L206.60 27.04L211.88 27.04Q214.80 27.04 216.32 25.76Q217.84 24.48 217.84 22.16L217.84 22.16Z"/></g>
</svg>
</g><g opacity="1" transform="rotate(0 217.2648 308.8169)">
<svg width="198.5558" height="20" x="217.2648" y="308.8169" version="1.1" preserveAspectRatio="none" viewBox="4.2 -30.28 380.12000000000006 38.28">
  <g transform="matrix(1 0 0 1 0 0)" class="text"><path id="id-D-YM9nyY417" d="M8.20-3.48L24.52-3.48L24.52 0L4.20 0L4.20-28L23.96-28L23.96-24.52L8.20-24.52L8.20-15.92L22.24-15.92L22.24-12.52L8.20-12.52L8.20-3.48Z M42.96-21.40Q47-21.40 49.38-19.06Q51.76-16.72 51.76-12.20L51.76-12.20L51.76 0L47.92 0L47.92-11.76Q47.92-14.84 46.44-16.40Q44.96-17.96 42.20-17.96L42.20-17.96Q39.08-17.96 37.28-16.14Q35.48-14.32 35.48-10.92L35.48-10.92L35.48 0L31.64 0L31.64-21.20L35.32-21.20L35.32-18Q36.48-19.64 38.46-20.52Q40.44-21.40 42.96-21.40L42.96-21.40Z M76.36-29.68L80.20-29.68L80.20 0L76.52 0L76.52-3.36Q75.24-1.60 73.28-0.68Q71.32 0.24 68.96 0.24L68.96 0.24Q65.88 0.24 63.44-1.12Q61-2.48 59.62-4.94Q58.24-7.40 58.24-10.60L58.24-10.60Q58.24-13.80 59.62-16.24Q61-18.68 63.44-20.04Q65.88-21.40 68.96-21.40L68.96-21.40Q71.24-21.40 73.16-20.54Q75.08-19.68 76.36-18L76.36-18L76.36-29.68ZM69.28-3.12Q71.28-3.12 72.92-4.06Q74.56-5 75.48-6.70Q76.40-8.40 76.40-10.60L76.40-10.60Q76.40-12.80 75.48-14.50Q74.56-16.20 72.92-17.12Q71.28-18.04 69.28-18.04L69.28-18.04Q67.24-18.04 65.62-17.12Q64-16.20 63.06-14.50Q62.12-12.80 62.12-10.60L62.12-10.60Q62.12-8.40 63.06-6.70Q64-5 65.62-4.06Q67.24-3.12 69.28-3.12L69.28-3.12Z M88.68 0L88.68-29.68L92.52-29.68L92.52 0L88.68 0Z M120.20-10.48Q120.20-10.04 120.12-9.32L120.12-9.32L102.92-9.32Q103.28-6.52 105.38-4.82Q107.48-3.12 110.60-3.12L110.60-3.12Q114.40-3.12 116.72-5.68L116.72-5.68L118.84-3.20Q117.40-1.52 115.26-0.64Q113.12 0.24 110.48 0.24L110.48 0.24Q107.12 0.24 104.52-1.14Q101.92-2.52 100.50-5Q99.08-7.48 99.08-10.60L99.08-10.60Q99.08-13.68 100.46-16.16Q101.84-18.64 104.26-20.02Q106.68-21.40 109.72-21.40L109.72-21.40Q112.76-21.40 115.14-20.02Q117.52-18.64 118.86-16.16Q120.20-13.68 120.20-10.48L120.20-10.48ZM109.72-18.16Q106.96-18.16 105.10-16.48Q103.24-14.80 102.92-12.08L102.92-12.08L116.52-12.08Q116.20-14.76 114.34-16.46Q112.48-18.16 109.72-18.16L109.72-18.16Z M132.80 0.24Q130.20 0.24 127.80-0.46Q125.40-1.16 124.04-2.24L124.04-2.24L125.64-5.28Q127.04-4.28 129.04-3.68Q131.04-3.08 133.08-3.08L133.08-3.08Q138.12-3.08 138.12-5.96L138.12-5.96Q138.12-6.92 137.44-7.48Q136.76-8.04 135.74-8.30Q134.72-8.56 132.84-8.88L132.84-8.88Q130.28-9.28 128.66-9.80Q127.04-10.32 125.88-11.56Q124.72-12.80 124.72-15.04L124.72-15.04Q124.72-17.92 127.12-19.66Q129.52-21.40 133.56-21.40L133.56-21.40Q135.68-21.40 137.80-20.88Q139.92-20.36 141.28-19.48L141.28-19.48L139.64-16.44Q137.04-18.12 133.52-18.12L133.52-18.12Q131.08-18.12 129.80-17.32Q128.52-16.52 128.52-15.20L128.52-15.20Q128.52-14.16 129.24-13.56Q129.96-12.96 131.02-12.68Q132.08-12.40 134-12.04L134-12.04Q136.56-11.60 138.14-11.10Q139.72-10.60 140.84-9.40Q141.96-8.20 141.96-6.04L141.96-6.04Q141.96-3.16 139.50-1.46Q137.04 0.24 132.80 0.24L132.80 0.24Z M154.04 0.24Q151.44 0.24 149.04-0.46Q146.64-1.16 145.28-2.24L145.28-2.24L146.88-5.28Q148.28-4.28 150.28-3.68Q152.28-3.08 154.32-3.08L154.32-3.08Q159.36-3.08 159.36-5.96L159.36-5.96Q159.36-6.92 158.68-7.48Q158-8.04 156.98-8.30Q155.96-8.56 154.08-8.88L154.08-8.88Q151.52-9.28 149.90-9.80Q148.28-10.32 147.12-11.56Q145.96-12.80 145.96-15.04L145.96-15.04Q145.96-17.92 148.36-19.66Q150.76-21.40 154.80-21.40L154.80-21.40Q156.92-21.40 159.04-20.88Q161.16-20.36 162.52-19.48L162.52-19.48L160.88-16.44Q158.28-18.12 154.76-18.12L154.76-18.12Q152.32-18.12 151.04-17.32Q149.76-16.52 149.76-15.20L149.76-15.20Q149.76-14.16 150.48-13.56Q151.20-12.96 152.26-12.68Q153.32-12.40 155.24-12.04L155.24-12.04Q157.80-11.60 159.38-11.10Q160.96-10.60 162.08-9.40Q163.20-8.20 163.20-6.04L163.20-6.04Q163.20-3.16 160.74-1.46Q158.28 0.24 154.04 0.24L154.04 0.24Z M181.72 0L181.72-28L193.52-28Q197.96-28 201.40-26.24Q204.84-24.48 206.74-21.30Q208.64-18.12 208.64-14L208.64-14Q208.64-9.88 206.74-6.70Q204.84-3.52 201.40-1.76Q197.96 0 193.52 0L193.52 0L181.72 0ZM185.72-3.48L193.28-3.48Q196.68-3.48 199.26-4.80Q201.84-6.12 203.24-8.50Q204.64-10.88 204.64-14L204.64-14Q204.64-17.12 203.24-19.50Q201.84-21.88 199.26-23.20Q196.68-24.52 193.28-24.52L193.28-24.52L185.72-24.52L185.72-3.48Z M215.40 0L215.40-21.20L219.24-21.20L219.24 0L215.40 0ZM217.32-25.28Q216.20-25.28 215.46-26Q214.72-26.72 214.72-27.76L214.72-27.76Q214.72-28.80 215.46-29.54Q216.20-30.28 217.32-30.28L217.32-30.28Q218.44-30.28 219.18-29.58Q219.92-28.88 219.92-27.84L219.92-27.84Q219.92-26.76 219.18-26.02Q218.44-25.28 217.32-25.28L217.32-25.28Z M233.84 0.24Q231.24 0.24 228.84-0.46Q226.44-1.16 225.08-2.24L225.08-2.24L226.68-5.28Q228.08-4.28 230.08-3.68Q232.08-3.08 234.12-3.08L234.12-3.08Q239.16-3.08 239.16-5.96L239.16-5.96Q239.16-6.92 238.48-7.48Q237.80-8.04 236.78-8.30Q235.76-8.56 233.88-8.88L233.88-8.88Q231.32-9.28 229.70-9.80Q228.08-10.32 226.92-11.56Q225.76-12.80 225.76-15.04L225.76-15.04Q225.76-17.92 228.16-19.66Q230.56-21.40 234.60-21.40L234.60-21.40Q236.72-21.40 238.84-20.88Q240.96-20.36 242.32-19.48L242.32-19.48L240.68-16.44Q238.08-18.12 234.56-18.12L234.56-18.12Q232.12-18.12 230.84-17.32Q229.56-16.52 229.56-15.20L229.56-15.20Q229.56-14.16 230.28-13.56Q231.00-12.96 232.06-12.68Q233.12-12.40 235.04-12.04L235.04-12.04Q237.60-11.60 239.18-11.10Q240.76-10.60 241.88-9.40Q243.00-8.20 243.00-6.04L243.00-6.04Q243.00-3.16 240.54-1.46Q238.08 0.24 233.84 0.24L233.84 0.24Z M258.24 0.24Q255.00 0.24 252.46-1.16Q249.92-2.56 248.48-5.02Q247.04-7.48 247.04-10.60L247.04-10.60Q247.04-13.72 248.48-16.18Q249.92-18.64 252.46-20.02Q255.00-21.40 258.24-21.40L258.24-21.40Q261.12-21.40 263.38-20.24Q265.64-19.08 266.88-16.88L266.88-16.88L263.96-15Q262.96-16.52 261.48-17.28Q260.00-18.04 258.20-18.04L258.20-18.04Q256.12-18.04 254.46-17.12Q252.80-16.20 251.86-14.50Q250.92-12.80 250.92-10.60L250.92-10.60Q250.92-8.36 251.86-6.66Q252.80-4.96 254.46-4.04Q256.12-3.12 258.20-3.12L258.20-3.12Q260.00-3.12 261.48-3.88Q262.96-4.64 263.96-6.16L263.96-6.16L266.88-4.32Q265.64-2.12 263.38-0.94Q261.12 0.24 258.24 0.24L258.24 0.24Z M281.80 0.24Q278.64 0.24 276.12-1.16Q273.60-2.56 272.18-5.02Q270.76-7.48 270.76-10.60L270.76-10.60Q270.76-13.72 272.18-16.18Q273.60-18.64 276.12-20.02Q278.64-21.40 281.80-21.40L281.80-21.40Q284.96-21.40 287.46-20.02Q289.96-18.64 291.38-16.18Q292.80-13.72 292.80-10.60L292.80-10.60Q292.80-7.48 291.38-5.02Q289.96-2.56 287.46-1.16Q284.96 0.24 281.80 0.24L281.80 0.24ZM281.80-3.12Q283.84-3.12 285.46-4.06Q287.08-5 288.00-6.70Q288.92-8.40 288.92-10.60L288.92-10.60Q288.92-12.80 288.00-14.50Q287.08-16.20 285.46-17.12Q283.84-18.04 281.80-18.04L281.80-18.04Q279.76-18.04 278.14-17.12Q276.52-16.20 275.58-14.50Q274.64-12.80 274.64-10.60L274.64-10.60Q274.64-8.40 275.58-6.70Q276.52-5 278.14-4.06Q279.76-3.12 281.80-3.12L281.80-3.12Z M313.72-21.20L317.48-21.20L308.20 0L304.28 0L295.00-21.20L299.00-21.20L306.28-4.20L313.72-21.20Z M340.84-10.48Q340.84-10.04 340.76-9.32L340.76-9.32L323.56-9.32Q323.92-6.52 326.02-4.82Q328.12-3.12 331.24-3.12L331.24-3.12Q335.04-3.12 337.36-5.68L337.36-5.68L339.48-3.20Q338.04-1.52 335.90-0.64Q333.76 0.24 331.12 0.24L331.12 0.24Q327.76 0.24 325.16-1.14Q322.56-2.52 321.14-5Q319.72-7.48 319.72-10.60L319.72-10.60Q319.72-13.68 321.10-16.16Q322.48-18.64 324.90-20.02Q327.32-21.40 330.36-21.40L330.36-21.40Q333.40-21.40 335.78-20.02Q338.16-18.64 339.50-16.16Q340.84-13.68 340.84-10.48L340.84-10.48ZM330.36-18.16Q327.60-18.16 325.74-16.48Q323.88-14.80 323.56-12.08L323.56-12.08L337.16-12.08Q336.84-14.76 334.98-16.46Q333.12-18.16 330.36-18.16L330.36-18.16Z M351.04-17.64Q352.04-19.48 354.00-20.44Q355.96-21.40 358.76-21.40L358.76-21.40L358.76-17.68Q358.44-17.72 357.88-17.72L357.88-17.72Q354.76-17.72 352.98-15.86Q351.20-14 351.20-10.56L351.20-10.56L351.20 0L347.36 0L347.36-21.20L351.04-21.20L351.04-17.64Z M380.56-21.20L384.32-21.20L374.04 2.12Q372.68 5.36 370.86 6.68Q369.04 8 366.48 8L366.48 8Q364.92 8 363.46 7.50Q362.00 7 361.04 6.04L361.04 6.04L362.68 3.16Q364.32 4.72 366.48 4.72L366.48 4.72Q367.88 4.72 368.82 3.98Q369.76 3.24 370.52 1.44L370.52 1.44L371.20-0.04L361.84-21.20L365.84-21.20L373.24-4.24L380.56-21.20Z"/></g>
</svg>
</g></svg></svg>