<svg version="1.1" preserveAspectRatio="none" xmlns="http://www.w3.org/2000/svg" width="500" height="500" viewBox="0 0 500 500"><rect width="100%" height="100%" fill="#FFFFFF" fill-opacity="1"/><svg viewBox="203.5806 -73.4172 388.7162 355.2089" width="333" height="304.2954312169135" x="83.5px" y="97.8523px" xmlns="http://www.w3.org/2000/svg" xmlns:xlink="http://www.w3.org/1999/xlink" preserveAspectRatio="none"><defs></defs><style>.companyName {fill:#0000FF;fill-opacity:1;}.icon1 {fill:#0000FF;fill-opacity:1;}.icon2 {fill:#A9FF94;fill-opacity:1;}.icon3 {fill:#000084;fill-opacity:1;}.icon3-str {stroke:#000084;stroke-opacity:1;}.text {fill:#0000FF;fill-opacity:1;}</style><g opacity="1" transform="rotate(0 296.3076 261.9917)">
<svg width="203.2622" height="19.8" x="296.3076" y="261.9917" version="1.1" preserveAspectRatio="none" viewBox="4.2 -30.28 392.92 38.28">
  <g transform="matrix(1 0 0 1 0 0)" class="text"><path id="id-6izo4zJp17" d="M8.20-3.48L24.52-3.48L24.52 0L4.20 0L4.20-28L23.96-28L23.96-24.52L8.20-24.52L8.20-15.92L22.24-15.92L22.24-12.52L8.20-12.52L8.20-3.48Z M43.76-21.40Q47.80-21.40 50.18-19.06Q52.56-16.72 52.56-12.20L52.56-12.20L52.56 0L48.72 0L48.72-11.76Q48.72-14.84 47.24-16.40Q45.76-17.96 43-17.96L43-17.96Q39.88-17.96 38.08-16.14Q36.28-14.32 36.28-10.92L36.28-10.92L36.28 0L32.44 0L32.44-21.20L36.12-21.20L36.12-18Q37.28-19.64 39.26-20.52Q41.24-21.40 43.76-21.40L43.76-21.40Z M77.96-29.68L81.80-29.68L81.80 0L78.12 0L78.12-3.36Q76.84-1.60 74.88-0.68Q72.92 0.24 70.56 0.24L70.56 0.24Q67.48 0.24 65.04-1.12Q62.60-2.48 61.22-4.94Q59.84-7.40 59.84-10.60L59.84-10.60Q59.84-13.80 61.22-16.24Q62.60-18.68 65.04-20.04Q67.48-21.40 70.56-21.40L70.56-21.40Q72.84-21.40 74.76-20.54Q76.68-19.68 77.96-18L77.96-18L77.96-29.68ZM70.88-3.12Q72.88-3.12 74.52-4.06Q76.16-5 77.08-6.70Q78-8.40 78-10.60L78-10.60Q78-12.80 77.08-14.50Q76.16-16.20 74.52-17.12Q72.88-18.04 70.88-18.04L70.88-18.04Q68.84-18.04 67.22-17.12Q65.60-16.20 64.66-14.50Q63.72-12.80 63.72-10.60L63.72-10.60Q63.72-8.40 64.66-6.70Q65.60-5 67.22-4.06Q68.84-3.12 70.88-3.12L70.88-3.12Z M91.08 0L91.08-29.68L94.92-29.68L94.92 0L91.08 0Z M123.40-10.48Q123.40-10.04 123.32-9.32L123.32-9.32L106.12-9.32Q106.48-6.52 108.58-4.82Q110.68-3.12 113.80-3.12L113.80-3.12Q117.60-3.12 119.92-5.68L119.92-5.68L122.04-3.20Q120.60-1.52 118.46-0.64Q116.32 0.24 113.68 0.24L113.68 0.24Q110.32 0.24 107.72-1.14Q105.12-2.52 103.70-5Q102.28-7.48 102.28-10.60L102.28-10.60Q102.28-13.68 103.66-16.16Q105.04-18.64 107.46-20.02Q109.88-21.40 112.92-21.40L112.92-21.40Q115.96-21.40 118.34-20.02Q120.72-18.64 122.06-16.16Q123.40-13.68 123.40-10.48L123.40-10.48ZM112.92-18.16Q110.16-18.16 108.30-16.48Q106.44-14.80 106.12-12.08L106.12-12.08L119.72-12.08Q119.40-14.76 117.54-16.46Q115.68-18.16 112.92-18.16L112.92-18.16Z M136.80 0.24Q134.20 0.24 131.80-0.46Q129.40-1.16 128.04-2.24L128.04-2.24L129.64-5.28Q131.04-4.28 133.04-3.68Q135.04-3.08 137.08-3.08L137.08-3.08Q142.12-3.08 142.12-5.96L142.12-5.96Q142.12-6.92 141.44-7.48Q140.76-8.04 139.74-8.30Q138.72-8.56 136.84-8.88L136.84-8.88Q134.28-9.28 132.66-9.80Q131.04-10.32 129.88-11.56Q128.72-12.80 128.72-15.04L128.72-15.04Q128.72-17.92 131.12-19.66Q133.52-21.40 137.56-21.40L137.56-21.40Q139.68-21.40 141.80-20.88Q143.92-20.36 145.28-19.48L145.28-19.48L143.64-16.44Q141.04-18.12 137.52-18.12L137.52-18.12Q135.08-18.12 133.80-17.32Q132.52-16.52 132.52-15.20L132.52-15.20Q132.52-14.16 133.24-13.56Q133.96-12.96 135.02-12.68Q136.08-12.40 138-12.04L138-12.04Q140.56-11.60 142.14-11.10Q143.72-10.60 144.84-9.40Q145.96-8.20 145.96-6.04L145.96-6.04Q145.96-3.16 143.50-1.46Q141.04 0.24 136.80 0.24L136.80 0.24Z M158.84 0.24Q156.24 0.24 153.84-0.46Q151.44-1.16 150.08-2.24L150.08-2.24L151.68-5.28Q153.08-4.28 155.08-3.68Q157.08-3.08 159.12-3.08L159.12-3.08Q164.16-3.08 164.16-5.96L164.16-5.96Q164.16-6.92 163.48-7.48Q162.80-8.04 161.78-8.30Q160.76-8.56 158.88-8.88L158.88-8.88Q156.32-9.28 154.70-9.80Q153.08-10.32 151.92-11.56Q150.76-12.80 150.76-15.04L150.76-15.04Q150.76-17.92 153.16-19.66Q155.56-21.40 159.60-21.40L159.60-21.40Q161.72-21.40 163.84-20.88Q165.96-20.36 167.32-19.48L167.32-19.48L165.68-16.44Q163.08-18.12 159.56-18.12L159.56-18.12Q157.12-18.12 155.84-17.32Q154.56-16.52 154.56-15.20L154.56-15.20Q154.56-14.16 155.28-13.56Q156-12.96 157.06-12.68Q158.12-12.40 160.04-12.04L160.04-12.04Q162.60-11.60 164.18-11.10Q165.76-10.60 166.88-9.40Q168-8.20 168-6.04L168-6.04Q168-3.16 165.54-1.46Q163.08 0.24 158.84 0.24L158.84 0.24Z M188.12 0L188.12-28L199.92-28Q204.36-28 207.80-26.24Q211.24-24.48 213.14-21.30Q215.04-18.12 215.04-14L215.04-14Q215.04-9.88 213.14-6.70Q211.24-3.52 207.80-1.76Q204.36 0 199.92 0L199.92 0L188.12 0ZM192.12-3.48L199.68-3.48Q203.08-3.48 205.66-4.80Q208.24-6.12 209.64-8.50Q211.04-10.88 211.04-14L211.04-14Q211.04-17.12 209.64-19.50Q208.24-21.88 205.66-23.20Q203.08-24.52 199.68-24.52L199.68-24.52L192.12-24.52L192.12-3.48Z M222.60 0L222.60-21.20L226.44-21.20L226.44 0L222.60 0ZM224.52-25.28Q223.40-25.28 222.66-26Q221.92-26.72 221.92-27.76L221.92-27.76Q221.92-28.80 222.66-29.54Q223.40-30.28 224.52-30.28L224.52-30.28Q225.64-30.28 226.38-29.58Q227.12-28.88 227.12-27.84L227.12-27.84Q227.12-26.76 226.38-26.02Q225.64-25.28 224.52-25.28L224.52-25.28Z M241.84 0.24Q239.24 0.24 236.84-0.46Q234.44-1.16 233.08-2.24L233.08-2.24L234.68-5.28Q236.08-4.28 238.08-3.68Q240.08-3.08 242.12-3.08L242.12-3.08Q247.16-3.08 247.16-5.96L247.16-5.96Q247.16-6.92 246.48-7.48Q245.80-8.04 244.78-8.30Q243.76-8.56 241.88-8.88L241.88-8.88Q239.32-9.28 237.70-9.80Q236.08-10.32 234.92-11.56Q233.76-12.80 233.76-15.04L233.76-15.04Q233.76-17.92 236.16-19.66Q238.56-21.40 242.60-21.40L242.60-21.40Q244.72-21.40 246.84-20.88Q248.96-20.36 250.32-19.48L250.32-19.48L248.68-16.44Q246.08-18.12 242.56-18.12L242.56-18.12Q240.12-18.12 238.84-17.32Q237.56-16.52 237.56-15.20L237.56-15.20Q237.56-14.16 238.28-13.56Q239.00-12.96 240.06-12.68Q241.12-12.40 243.04-12.04L243.04-12.04Q245.60-11.60 247.18-11.10Q248.76-10.60 249.88-9.40Q251.00-8.20 251.00-6.04L251.00-6.04Q251.00-3.16 248.54-1.46Q246.08 0.24 241.84 0.24L241.84 0.24Z M267.04 0.24Q263.80 0.24 261.26-1.16Q258.72-2.56 257.28-5.02Q255.84-7.48 255.84-10.60L255.84-10.60Q255.84-13.72 257.28-16.18Q258.72-18.64 261.26-20.02Q263.80-21.40 267.04-21.40L267.04-21.40Q269.92-21.40 272.18-20.24Q274.44-19.08 275.68-16.88L275.68-16.88L272.76-15Q271.76-16.52 270.28-17.28Q268.80-18.04 267.00-18.04L267.00-18.04Q264.92-18.04 263.26-17.12Q261.60-16.20 260.66-14.50Q259.72-12.80 259.72-10.60L259.72-10.60Q259.72-8.36 260.66-6.66Q261.60-4.96 263.26-4.04Q264.92-3.12 267.00-3.12L267.00-3.12Q268.80-3.12 270.28-3.88Q271.76-4.64 272.76-6.16L272.76-6.16L275.68-4.32Q274.44-2.12 272.18-0.94Q269.92 0.24 267.04 0.24L267.04 0.24Z M291.40 0.24Q288.24 0.24 285.72-1.16Q283.20-2.56 281.78-5.02Q280.36-7.48 280.36-10.60L280.36-10.60Q280.36-13.72 281.78-16.18Q283.20-18.64 285.72-20.02Q288.24-21.40 291.40-21.40L291.40-21.40Q294.56-21.40 297.06-20.02Q299.56-18.64 300.98-16.18Q302.40-13.72 302.40-10.60L302.40-10.60Q302.40-7.48 300.98-5.02Q299.56-2.56 297.06-1.16Q294.56 0.24 291.40 0.24L291.40 0.24ZM291.40-3.12Q293.44-3.12 295.06-4.06Q296.68-5 297.60-6.70Q298.52-8.40 298.52-10.60L298.52-10.60Q298.52-12.80 297.60-14.50Q296.68-16.20 295.06-17.12Q293.44-18.04 291.40-18.04L291.40-18.04Q289.36-18.04 287.74-17.12Q286.12-16.20 285.18-14.50Q284.24-12.80 284.24-10.60L284.24-10.60Q284.24-8.40 285.18-6.70Q286.12-5 287.74-4.06Q289.36-3.12 291.40-3.12L291.40-3.12Z M324.12-21.20L327.88-21.20L318.60 0L314.68 0L305.40-21.20L309.40-21.20L316.68-4.20L324.12-21.20Z M352.04-10.48Q352.04-10.04 351.96-9.32L351.96-9.32L334.76-9.32Q335.12-6.52 337.22-4.82Q339.32-3.12 342.44-3.12L342.44-3.12Q346.24-3.12 348.56-5.68L348.56-5.68L350.68-3.20Q349.24-1.52 347.10-0.64Q344.96 0.24 342.32 0.24L342.32 0.24Q338.96 0.24 336.36-1.14Q333.76-2.52 332.34-5Q330.92-7.48 330.92-10.60L330.92-10.60Q330.92-13.68 332.30-16.16Q333.68-18.64 336.10-20.02Q338.52-21.40 341.56-21.40L341.56-21.40Q344.60-21.40 346.98-20.02Q349.36-18.64 350.70-16.16Q352.04-13.68 352.04-10.48L352.04-10.48ZM341.56-18.16Q338.80-18.16 336.94-16.48Q335.08-14.80 334.76-12.08L334.76-12.08L348.36-12.08Q348.04-14.76 346.18-16.46Q344.32-18.16 341.56-18.16L341.56-18.16Z M363.04-17.64Q364.04-19.48 366.00-20.44Q367.96-21.40 370.76-21.40L370.76-21.40L370.76-17.68Q370.44-17.72 369.88-17.72L369.88-17.72Q366.76-17.72 364.98-15.86Q363.20-14 363.20-10.56L363.20-10.56L363.20 0L359.36 0L359.36-21.20L363.04-21.20L363.04-17.64Z M393.36-21.20L397.12-21.20L386.84 2.12Q385.48 5.36 383.66 6.68Q381.84 8 379.28 8L379.28 8Q377.72 8 376.26 7.50Q374.80 7 373.84 6.04L373.84 6.04L375.48 3.16Q377.12 4.72 379.28 4.72L379.28 4.72Q380.68 4.72 381.62 3.98Q382.56 3.24 383.32 1.44L383.32 1.44L384.00-0.04L374.64-21.20L378.64-21.20L386.04-4.24L393.36-21.20Z"/></g>
</svg>
</g><g opacity="1" transform="rotate(0 203.5806 205.9917)">
<svg width="388.7162" height="36" x="203.5806" y="205.9917" version="1.1" preserveAspectRatio="none" viewBox="1.28 -29.68 407.72 37.760000000000005">
  <g transform="matrix(1 0 0 1 0 0)" class="companyName"><path id="id-D6z1nYkh16" d="M13.28 0.32Q9.84 0.32 7.10-1.10Q4.36-2.52 2.82-5.04Q1.28-7.56 1.28-10.76L1.28-10.76Q1.28-13.96 2.82-16.48Q4.36-19 7.10-20.42Q9.84-21.84 13.28-21.84L13.28-21.84Q16.68-21.84 19.22-20.42Q21.76-19 22.92-16.36L22.92-16.36L18.08-13.76Q16.40-16.72 13.24-16.72L13.24-16.72Q10.80-16.72 9.20-15.12Q7.60-13.52 7.60-10.76L7.60-10.76Q7.60-8 9.20-6.40Q10.80-4.80 13.24-4.80L13.24-4.80Q16.44-4.80 18.08-7.76L18.08-7.76L22.92-5.12Q21.76-2.56 19.22-1.12Q16.68 0.32 13.28 0.32L13.28 0.32Z M40.56 0.32Q37.16 0.32 34.46-1.10Q31.76-2.52 30.24-5.04Q28.72-7.56 28.72-10.76L28.72-10.76Q28.72-13.96 30.24-16.48Q31.76-19 34.46-20.42Q37.16-21.84 40.56-21.84L40.56-21.84Q43.96-21.84 46.64-20.42Q49.32-19 50.84-16.48Q52.36-13.96 52.36-10.76L52.36-10.76Q52.36-7.56 50.84-5.04Q49.32-2.52 46.64-1.10Q43.96 0.32 40.56 0.32L40.56 0.32ZM40.56-4.80Q42.96-4.80 44.50-6.42Q46.04-8.04 46.04-10.76L46.04-10.76Q46.04-13.48 44.50-15.10Q42.96-16.72 40.56-16.72L40.56-16.72Q38.16-16.72 36.60-15.10Q35.04-13.48 35.04-10.76L35.04-10.76Q35.04-8.04 36.60-6.42Q38.16-4.80 40.56-4.80L40.56-4.80Z M76.04-21.52L82.28-21.52L82.28 0L76.36 0L76.36-2.56Q75.12-1.16 73.40-0.42Q71.68 0.32 69.68 0.32L69.68 0.32Q65.44 0.32 62.96-2.12Q60.48-4.56 60.48-9.36L60.48-9.36L60.48-21.52L66.72-21.52L66.72-10.28Q66.72-5.08 71.08-5.08L71.08-5.08Q73.32-5.08 74.68-6.54Q76.04-8 76.04-10.88L76.04-10.88L76.04-21.52Z M105.24-21.84Q109.24-21.84 111.70-19.44Q114.16-17.04 114.16-12.32L114.16-12.32L114.16 0L107.92 0L107.92-11.36Q107.92-13.92 106.80-15.18Q105.68-16.44 103.56-16.44L103.56-16.44Q101.20-16.44 99.80-14.98Q98.40-13.52 98.40-10.64L98.40-10.64L98.40 0L92.16 0L92.16-21.52L98.12-21.52L98.12-19Q99.36-20.36 101.20-21.10Q103.04-21.84 105.24-21.84L105.24-21.84Z M136.08-5.44L137.76-1.04Q136.84-0.36 135.50-0.02Q134.16 0.32 132.68 0.32L132.68 0.32Q128.84 0.32 126.74-1.64Q124.64-3.60 124.64-7.40L124.64-7.40L124.64-16.24L121.32-16.24L121.32-21.04L124.64-21.04L124.64-26.28L130.88-26.28L130.88-21.04L136.24-21.04L136.24-16.24L130.88-16.24L130.88-7.48Q130.88-6.12 131.58-5.38Q132.28-4.64 133.56-4.64L133.56-4.64Q135.04-4.64 136.08-5.44L136.08-5.44Z M151.32-18.68Q152.44-20.24 154.34-21.04Q156.24-21.84 158.72-21.84L158.72-21.84L158.72-16.08Q157.68-16.16 157.32-16.16L157.32-16.16Q154.64-16.16 153.12-14.66Q151.60-13.16 151.60-10.16L151.60-10.16L151.60 0L145.36 0L145.36-21.52L151.32-21.52L151.32-18.68Z M182.64-21.52L188.64-21.52L178.92 1.32Q177.44 5.04 175.26 6.56Q173.08 8.08 170.00 8.08L170.00 8.08Q168.32 8.08 166.68 7.56Q165.04 7.04 164.00 6.12L164.00 6.12L166.28 1.68Q167.00 2.32 167.94 2.68Q168.88 3.04 169.80 3.04L169.80 3.04Q171.08 3.04 171.88 2.42Q172.68 1.80 173.32 0.36L173.32 0.36L173.40 0.16L164.08-21.52L170.52-21.52L176.56-6.92L182.64-21.52Z M231.76-10.68Q231.76-10.56 231.64-9L231.64-9L215.36-9Q215.80-7 217.44-5.84Q219.08-4.68 221.52-4.68L221.52-4.68Q223.20-4.68 224.50-5.18Q225.80-5.68 226.92-6.76L226.92-6.76L230.24-3.16Q227.20 0.32 221.36 0.32L221.36 0.32Q217.72 0.32 214.92-1.10Q212.12-2.52 210.60-5.04Q209.08-7.56 209.08-10.76L209.08-10.76Q209.08-13.92 210.58-16.46Q212.08-19 214.70-20.42Q217.32-21.84 220.56-21.84L220.56-21.84Q223.72-21.84 226.28-20.48Q228.84-19.12 230.30-16.58Q231.76-14.04 231.76-10.68L231.76-10.68ZM220.60-17.12Q218.48-17.12 217.04-15.92Q215.60-14.72 215.28-12.64L215.28-12.64L225.88-12.64Q225.56-14.68 224.12-15.90Q222.68-17.12 220.60-17.12L220.60-17.12Z M260.16 0L253.08 0L248.36-6.60L243.48 0L236.68 0L244.96-10.84L236.96-21.52L243.96-21.52L248.52-15.24L253.20-21.52L259.84-21.52L251.84-11L260.16 0Z M280.00-21.84Q283.00-21.84 285.46-20.46Q287.92-19.08 289.32-16.58Q290.72-14.08 290.72-10.76L290.72-10.76Q290.72-7.44 289.32-4.94Q287.92-2.44 285.46-1.06Q283.00 0.32 280.00 0.32L280.00 0.32Q275.88 0.32 273.52-2.28L273.52-2.28L273.52 7.76L267.28 7.76L267.28-21.52L273.24-21.52L273.24-19.04Q275.56-21.84 280.00-21.84L280.00-21.84ZM278.92-4.80Q281.32-4.80 282.86-6.42Q284.40-8.04 284.40-10.76L284.40-10.76Q284.40-13.48 282.86-15.10Q281.32-16.72 278.92-16.72L278.92-16.72Q276.52-16.72 274.98-15.10Q273.44-13.48 273.44-10.76L273.44-10.76Q273.44-8.04 274.98-6.42Q276.52-4.80 278.92-4.80L278.92-4.80Z M298.96 0L298.96-29.68L305.20-29.68L305.20 0L298.96 0Z M325.32 0.32Q321.92 0.32 319.22-1.10Q316.52-2.52 315.00-5.04Q313.48-7.56 313.48-10.76L313.48-10.76Q313.48-13.96 315.00-16.48Q316.52-19 319.22-20.42Q321.92-21.84 325.32-21.84L325.32-21.84Q328.72-21.84 331.40-20.42Q334.08-19 335.60-16.48Q337.12-13.96 337.12-10.76L337.12-10.76Q337.12-7.56 335.60-5.04Q334.08-2.52 331.40-1.10Q328.72 0.32 325.32 0.32L325.32 0.32ZM325.32-4.80Q327.72-4.80 329.26-6.42Q330.80-8.04 330.80-10.76L330.80-10.76Q330.80-13.48 329.26-15.10Q327.72-16.72 325.32-16.72L325.32-16.72Q322.92-16.72 321.36-15.10Q319.80-13.48 319.80-10.76L319.80-10.76Q319.80-8.04 321.36-6.42Q322.92-4.80 325.32-4.80L325.32-4.80Z M351.32-18.68Q352.44-20.24 354.34-21.04Q356.24-21.84 358.72-21.84L358.72-21.84L358.72-16.08Q357.68-16.16 357.32-16.16L357.32-16.16Q354.64-16.16 353.12-14.66Q351.60-13.16 351.60-10.16L351.60-10.16L351.60 0L345.36 0L345.36-21.52L351.32-21.52L351.32-18.68Z M387.40-10.68Q387.40-10.56 387.28-9L387.28-9L371.00-9Q371.44-7 373.08-5.84Q374.72-4.68 377.16-4.68L377.16-4.68Q378.84-4.68 380.14-5.18Q381.44-5.68 382.56-6.76L382.56-6.76L385.88-3.16Q382.84 0.32 377.00 0.32L377.00 0.32Q373.36 0.32 370.56-1.10Q367.76-2.52 366.24-5.04Q364.72-7.56 364.72-10.76L364.72-10.76Q364.72-13.92 366.22-16.46Q367.72-19 370.34-20.42Q372.96-21.84 376.20-21.84L376.20-21.84Q379.36-21.84 381.92-20.48Q384.48-19.12 385.94-16.58Q387.40-14.04 387.40-10.68L387.40-10.68ZM376.24-17.12Q374.12-17.12 372.68-15.92Q371.24-14.72 370.92-12.64L370.92-12.64L381.52-12.64Q381.20-14.68 379.76-15.90Q378.32-17.12 376.24-17.12L376.24-17.12Z M401.60-18.68Q402.72-20.24 404.62-21.04Q406.52-21.84 409.00-21.84L409.00-21.84L409.00-16.08Q407.96-16.16 407.60-16.16L407.60-16.16Q404.92-16.16 403.40-14.66Q401.88-13.16 401.88-10.16L401.88-10.16L401.88 0L395.64 0L395.64-21.52L401.60-21.52L401.60-18.68Z"/></g>
</svg>
</g><g opacity="1" transform="rotate(0 320.1955 -73.4172)">
<svg width="155.4865" height="239.4089" x="320.1955" y="-73.4172" version="1.1" preserveAspectRatio="none" viewBox="100.13497161865234 16 311.7408142089844 480">
  <g transform="matrix(1 0 0 1 0 0)" class="icon1"><title>Global aviation</title><path d="M364.524,228.281l-2.935,3.195a164.726,164.726,0,0,0-20.845,28.22l-4.779,8.169a6.937,6.937,0,0,0,.837,7.973,11.817,11.817,0,0,0,7.461,3.953l2.306.284a22.341,22.341,0,0,1,18.637,15.683,21.915,21.915,0,0,1-6.447,22.719l-22.815,20.152a11.049,11.049,0,0,0-3.733,8.278v5.348a8.2,8.2,0,0,0,3.768,6.915,21.091,21.091,0,0,1,9.6,15.707l.534,5.34a6.756,6.756,0,0,0,6.744,6.1h13.356a17.75,17.75,0,0,0,16.249-10.613l.8-1.827a21.186,21.186,0,0,1,18.551-12.726l3.137-.142c.31-.014.625-.036.939-.069l4.64-.466a155.583,155.583,0,0,0-46.01-132.2Z"></path><path d="M150.309,186.777a.428.428,0,0,0,.427.428h67.128V173.924a6,6,0,0,1,12,0v67.765a6.011,6.011,0,0,1-.8,3L199.1,296.726a6.011,6.011,0,0,1-.954,1.245,1.28,1.28,0,0,0-.3,1.5,1.312,1.312,0,0,0,.614.7l55.5-20.067a6,6,0,0,1,4.075,0l55.672,20.07a1.314,1.314,0,0,0,.616-.706,1.281,1.281,0,0,0-.3-1.5,6,6,0,0,1-.947-1.233L282.943,244.7a6,6,0,0,1-.807-3.007V173.924a6,6,0,0,1,12,0v13.281h67.128a.428.428,0,0,0,.427-.428V171.609a6.877,6.877,0,0,0-5.515-6.726l-69.217-13.844a6,6,0,0,1-4.823-5.884V65.422a26.136,26.136,0,0,0-52.272,0v79.733a6,6,0,0,1-4.823,5.884l-69.22,13.845a6.873,6.873,0,0,0-5.512,6.722ZM247.1,86.718a7.928,7.928,0,1,1-7.929,7.928A7.937,7.937,0,0,1,247.1,86.718Zm0,19.282a7.928,7.928,0,1,1-7.929,7.928A7.938,7.938,0,0,1,247.1,106Zm0,19.281a7.929,7.929,0,1,1-7.929,7.928A7.938,7.938,0,0,1,247.1,125.281Zm0,19.281a7.929,7.929,0,1,1-7.929,7.928A7.938,7.938,0,0,1,247.1,144.562Zm0,19.282a7.928,7.928,0,1,1-7.929,7.928A7.937,7.937,0,0,1,247.1,163.844Zm0,19.281a7.928,7.928,0,1,1-7.929,7.929A7.938,7.938,0,0,1,247.1,183.125Zm0,19.281a7.929,7.929,0,1,1-7.929,7.929A7.938,7.938,0,0,1,247.1,202.406Zm0,19.282a7.928,7.928,0,1,1-7.929,7.928A7.938,7.938,0,0,1,247.1,221.688Z"></path><path d="M102.285,314.6l1.767-.349a29.493,29.493,0,0,1,31.211,14.124,27.379,27.379,0,0,0,4.914,6.19L152.851,346.5a17.725,17.725,0,0,0,7.455,4.177l1.475.4a27.149,27.149,0,0,1,18.936,18.856l6.795,24.515a22.525,22.525,0,0,0,3.814,7.679l20.589,27a27.459,27.459,0,0,1,5.233,12.094l5.619,33.717a3.42,3.42,0,0,0,4.695,2.591,8.128,8.128,0,0,0,4.943-6.662A36.161,36.161,0,0,1,240.6,451.4l5.965-7.175a11.1,11.1,0,0,0,2.083-3.847l6.129-19.885a30.832,30.832,0,0,1,10.743-15.453l18.4-14.128a4.887,4.887,0,0,0,.748-7.04l-12.141-14.283c-.747-.879-1.467-1.8-2.139-2.737l-9.546-13.305a25.8,25.8,0,0,0-20.913-10.736,6,6,0,0,1-3.087-.855l-18.968-11.38a17.106,17.106,0,0,0-16.8-.409l-9.994,5.355a21.063,21.063,0,0,1-27.637-7.271l-9.707-15.327a22.451,22.451,0,0,1,.379-24.608,25.109,25.109,0,0,1,24.069-10.878l14.694,1.865a11.607,11.607,0,0,0,2.377.058l22.611-39.271V199.205H189.4A156.467,156.467,0,0,0,102.285,314.6Z"></path><path d="M405.505,373l-3.142.144a9.259,9.259,0,0,0-8.108,5.561l-.8,1.827a29.75,29.75,0,0,1-27.236,17.789H352.86a18.718,18.718,0,0,1-18.684-16.91l-.534-5.34a9.157,9.157,0,0,0-4.168-6.816,20.151,20.151,0,0,1-9.263-17v-5.348A23.054,23.054,0,0,1,328,329.635l22.814-20.153a9.878,9.878,0,0,0,2.907-10.244,10.331,10.331,0,0,0-8.62-7.253L342.8,291.7a23.8,23.8,0,0,1-15.025-7.961,18.963,18.963,0,0,1-2.195-21.88l4.81-8.222a176.824,176.824,0,0,1,22.366-30.282l2.846-3.1a155.91,155.91,0,0,0-32.992-21.054h-28.47v40.873l28.992,50.068a13.377,13.377,0,0,1-10.076,22.176,6,6,0,0,1-2.035-.355L256,292.135l-54.843,19.83a6.013,6.013,0,0,1-2.04.357,13.376,13.376,0,0,1-10.639-21.485l-11.811-1.5a13.163,13.163,0,0,0-12.622,5.7,10.453,10.453,0,0,0-.176,11.457l9.707,15.326a9.017,9.017,0,0,0,11.832,3.113l10-5.354a29.158,29.158,0,0,1,28.638.7l17.609,10.565a37.827,37.827,0,0,1,28.936,15.7l9.546,13.306c.482.671,1,1.331,1.531,1.959L293.807,376.1a16.887,16.887,0,0,1-2.582,24.329l-18.4,14.128a18.9,18.9,0,0,0-6.583,9.47l-6.129,19.885a23.064,23.064,0,0,1-4.323,7.984l-5.966,7.174a24.2,24.2,0,0,0-5.482,13.027A20.122,20.122,0,0,1,232.1,488.587,15.419,15.419,0,0,1,210.93,476.9l-5.619-33.716a15.424,15.424,0,0,0-2.938-6.79l-20.589-27a34.476,34.476,0,0,1-5.836-11.751l-6.8-24.515a15.094,15.094,0,0,0-10.528-10.483l-1.475-.4a29.762,29.762,0,0,1-12.524-7.016l-12.674-11.928a39.4,39.4,0,0,1-7.066-8.9,17.493,17.493,0,0,0-18.511-8.376l-5.668,1.119c-.362,4.3-.567,8.632-.567,13C100.14,426.081,170.058,496,256,496c74.759,0,137.384-52.911,152.418-123.25l-1.327.134Q406.3,372.964,405.505,373Z"></path><path d="M326.211,110.024a6,6,0,0,0,6-6v-33.2a6,6,0,0,0-12,0v33.2A6,6,0,0,0,326.211,110.024Z"></path><path d="M320.211,125.621a6,6,0,1,0,12,0v-.113a6,6,0,1,0-12,0Z"></path><path d="M355.506,28.977a6,6,0,0,0,6-6V22a6,6,0,0,0-12,0v.977A6,6,0,0,0,355.506,28.977Z"></path><path d="M349.506,96.213a6,6,0,0,0,12,0V44.572a6,6,0,0,0-12,0Z"></path><path d="M157.194,110.024a6,6,0,0,0,6-6v-33.2a6,6,0,1,0-12,0v33.2A6,6,0,0,0,157.194,110.024Z"></path><path d="M151.194,125.621a6,6,0,0,0,12,0v-.113a6,6,0,0,0-12,0Z"></path><path d="M186.489,28.977a6,6,0,0,0,6-6V22a6,6,0,0,0-12,0v.977A6,6,0,0,0,186.489,28.977Z"></path><path d="M180.489,96.213a6,6,0,0,0,12,0V44.572a6,6,0,0,0-12,0Z"></path></g>
</svg>
</g></svg></svg>